<svg width="120" height="120" viewBox="0 0 120 120" fill="none" xmlns="http://www.w3.org/2000/svg">
<rect width="120" height="120" fill="white"/>
<path d="M90.9835 107.667V101.372L86.0543 106.226L83.931 104.102L90.9835 97.05V94.0166H87.9502L80.8977 101.069L78.7743 98.9458L83.6277 94.0166H77.3335V90.9833H83.6277L78.7743 86.0541L80.8977 83.9308L87.9502 90.9833H90.9835V87.95L83.931 80.8975L86.0543 78.7741L90.9835 83.6275V77.3333H94.0168V83.6275L98.946 78.7741L101.069 80.8975L94.0168 87.95V90.9833H97.0502L104.103 83.9308L106.226 86.0541L101.373 90.9833H107.667V94.0166H101.373L106.226 98.9458L104.103 101.069L97.0502 94.0166H94.0168V97.05L101.069 104.102L98.946 106.226L94.0168 101.372V107.667H90.9835Z" fill="white"/>
<path d="M31.8333 77.3333C25.2611 77.3333 19.6458 75.0042 14.9875 70.3458C10.3292 65.6875 8 60.0722 8 53.5C8 47.5055 9.98611 42.2694 13.9583 37.7917C17.9306 33.3139 22.8417 30.6778 28.6917 29.8833C31.0028 25.7667 34.1625 22.5347 38.1708 20.1875C42.1792 17.8403 46.5667 16.6667 51.3333 16.6667C57.8333 16.6667 63.4847 18.743 68.2875 22.8958C73.0903 27.0486 75.9972 32.2305 77.0083 38.4417C81.9917 38.875 86.1806 40.9333 89.575 44.6167C92.9694 48.3 94.6667 52.7055 94.6667 57.8333C94.6667 63.25 92.7708 67.8542 88.9792 71.6458C85.1875 75.4375 80.5833 77.3333 75.1667 77.3333H31.8333Z" fill="#A0D9FF"/>
<path d="M46.2179 101.307C47.0118 101.589 47.7929 101.525 48.5612 101.115C49.3295 100.705 49.8544 100.104 50.1361 99.3097C50.4178 98.5158 50.3538 97.7347 49.9441 96.9664L45.3344 87.7471C44.9247 86.9788 44.3229 86.4539 43.529 86.1722C42.7351 85.8904 41.954 85.9545 41.1857 86.3642C40.4175 86.774 39.8925 87.3758 39.6108 88.1697C39.3291 88.9636 39.3931 89.7446 39.8028 90.5129L44.4125 99.7322C44.8222 100.5 45.4241 101.025 46.2179 101.307Z" fill="#55B8FA"/>
<path d="M64.6566 101.307C65.4504 101.589 66.2315 101.525 66.9998 101.115C67.7681 100.705 68.2931 100.104 68.5748 99.3097C68.8565 98.5158 68.7924 97.7347 68.3827 96.9664L63.773 87.7471C63.3633 86.9788 62.7615 86.4539 61.9676 86.1722C61.1737 85.8904 60.3926 85.9545 59.6243 86.3642C58.8561 86.774 58.3311 87.3758 58.0494 88.1697C57.7677 88.9636 57.8317 89.7446 58.2415 90.5129L62.8511 99.7322C63.2609 100.5 63.8627 101.025 64.6566 101.307Z" fill="#55B8FA"/>
<path d="M27.7793 101.307C28.5732 101.589 29.3543 101.525 30.1226 101.115C30.8908 100.705 31.4158 100.104 31.6975 99.3097C31.9792 98.5158 31.9152 97.7347 31.5055 96.9664L26.8958 87.7471C26.4861 86.9788 25.8842 86.4539 25.0904 86.1722C24.2965 85.8904 23.5154 85.9545 22.7471 86.3642C21.9788 86.774 21.4539 87.3758 21.1722 88.1697C20.8904 88.9636 20.9545 89.7446 21.3642 90.5129L25.9739 99.7322C26.3836 100.5 26.9854 101.025 27.7793 101.307Z" fill="#55B8FA"/>
</svg>
